<svg xmlns="http://www.w3.org/2000/svg" version="1.1" xmlns:xlink="http://www.w3.org/1999/xlink" xmlns:svgjs="http://svgjs.com/svgjs" width="1440" height="560" preserveAspectRatio="none" viewBox="0 0 1440 560"><g mask="url(&quot;#SvgjsMask1044&quot;)" fill="none"><rect width="1440" height="560" x="0" y="0" fill="rgba(203, 223, 243, 1)"></rect><path d="M0,469.402C88.836,465.945,175.293,436.923,247.157,384.584C316.555,334.041,357.807,257.732,396.123,180.903C435.67,101.605,482.062,20.146,472.86,-67.987C463.524,-157.404,399.955,-227.891,345.939,-299.758C288.081,-376.737,241.099,-479.964,147.19,-501.282C53.305,-522.594,-34.108,-450.697,-119.008,-405.303C-188.77,-368.003,-242.825,-314.289,-301.592,-261.331C-369.456,-200.176,-459.149,-156.326,-490.511,-70.525C-524.214,21.681,-519.581,129.39,-476.683,217.694C-434.15,305.246,-345.908,358.861,-259.835,404.311C-179.246,446.865,-91.065,472.945,0,469.402" fill="#b9d4ef"></path><path d="M1440 1102.399C1539.274 1080.4769999999999 1580.737 964.279 1655.627 895.5219999999999 1715.008 841.004 1802.129 813.989 1834.531 740.1759999999999 1866.8020000000001 666.6610000000001 1830.49 584.531 1827.358 504.306 1823.783 412.727 1862.972 313.198 1814.818 235.219 1765.491 155.339 1667.863 116.07299999999998 1575.913 97.12099999999998 1487.979 78.99599999999998 1402.221 113.656 1314.346 132.063 1218.162 152.20999999999998 1090.65 128.31099999999998 1036.2640000000001 210.161 980.249 294.463 1062.887 405.017 1065.753 506.19100000000003 1067.9859999999999 585.031 1037.647 659.859 1051.204 737.557 1068.022 833.944 1081.701 939.5509999999999 1153.049 1006.504 1228.1109999999999 1076.941 1339.487 1124.595 1440 1102.399" fill="#ddeaf7"></path></g><defs><mask id="SvgjsMask1044"><rect width="1440" height="560" fill="#ffffff"></rect></mask></defs></svg>