<svg xmlns="http://www.w3.org/2000/svg" version="1.1" xmlns:xlink="http://www.w3.org/1999/xlink" xmlns:svgjs="http://svgjs.com/svgjs" width="1680" height="950" preserveAspectRatio="none" viewBox="0 0 1680 950"><g mask="url(&quot;#SvgjsMask3238&quot;)" fill="none"><rect width="1680" height="950" x="0" y="0" fill="rgba(204, 221, 239, 1)"></rect><use xlink:href="#SvgjsG3245" transform="translate(0, 0)" fill="rgba(169, 203, 237, 1)"></use><use xlink:href="#SvgjsG3245" transform="translate(0, 624)" fill="rgba(169, 203, 237, 1)"></use><use xlink:href="#SvgjsG3245" transform="translate(624, 0)" fill="rgba(169, 203, 237, 1)"></use><use xlink:href="#SvgjsG3245" transform="translate(624, 624)" fill="rgba(169, 203, 237, 1)"></use><use xlink:href="#SvgjsG3245" transform="translate(1248, 0)" fill="rgba(169, 203, 237, 1)"></use><use xlink:href="#SvgjsG3245" transform="translate(1248, 624)" fill="rgba(169, 203, 237, 1)"></use></g><defs><mask id="SvgjsMask3238"><rect width="1680" height="950" fill="#ffffff"></rect></mask><g id="SvgjsG3242"><path d="M3.474 10.969C3.474 7.665 8.077 0.361 8.077 0.361s4.602 7.305 4.602 10.608c0 2.247-1.506 4.771-4.602 4.771-3.095 0-4.603-2.524-4.603-4.771z" fill-rule="evenodd"></path></g><g id="SvgjsG3240"><path d="M7.713 15.485C3.459 15.485 0 12.025 0 7.768 0 3.513 3.459 0.051 7.713 0.051S15.432 3.513 15.432 7.768c0 4.257-3.465 7.716-7.719 7.717z m0-1.91c3.201 0 5.81-2.604 5.81-5.809 0-3.199-2.61-5.807-5.81-5.807-3.202 0-5.804 2.609-5.804 5.807-0.001 3.206 2.602 5.809 5.804 5.809z"></path><path d="M7.753 8.787a0.574 0.574 0 0 1-0.554-0.042 0.578 0.578 0 0 1-0.259-0.399L6.931 3.862a0.58 0.58 0 0 1 1.162 0v3.478l2.975-1.4a0.578 0.578 0 0 1 0.773 0.275c0.138 0.292 0.011 0.637-0.276 0.774l-3.81 1.798z"></path></g><g id="SvgjsG3239"><path d="M15.065 12.151H0.02c0 1.333 1.015 1.95 1.83 1.95h11.386c0.975 0 1.83-0.767 1.829-1.951zM12.853 2.166H1.869v7.208c0 0.976 0.843 1.75 1.755 1.75h7.121c1.031 0 1.731-0.863 1.731-1.749V8.773c2.031 0 3.505-1.527 3.505-3.303 0-1.815-1.445-3.303-3.126-3.303z m1.832 3.305c0 1.036-0.763 2.025-2.21 1.931V3.519l0.378 0 0 0.001c1.391 0 1.837 1.318 1.832 1.952v-0.001z"></path></g><g id="SvgjsG3243"><path d="M16 11.289H0C0.001 12.447 0.884 12.984 1.594 12.987H14.406c0.847-0.003 1.59-0.669 1.594-1.698zM12.96 3.12H3.413v6.263c0.002 0.851 0.734 1.523 1.525 1.525h6.194c0.893-0.002 1.502-0.752 1.498-1.525v-0.519c1.768-0.002 3.05-1.328 3.05-2.876 0.001-1.575-1.256-2.869-2.72-2.868zM12.63 7.668V4.298h0.33c1.211-0.002 1.599 1.143 1.593 1.698 0.001 0.896-0.662 1.755-1.923 1.672z"></path></g><g id="SvgjsG3244"><path d="M11.852 2.71c-0.295 0.29-0.694 0.403-1.135 0.403-0.561 0-1.071-0.231-1.365-0.669-0.291 0.446-0.803 0.669-1.371 0.669-0.56 0-1.066-0.236-1.358-0.674-0.291 0.452-0.803 0.674-1.378 0.674-0.414 0-0.795-0.094-1.081-0.352l-0.217-1.574c0.297 0.397 0.769 0.654 1.298 0.654 0.574 0 1.087-0.285 1.378-0.736 0.293 0.437 0.798 0.736 1.359 0.736 0.568 0 1.081-0.285 1.372-0.731 0.293 0.437 0.803 0.731 1.365 0.731 0.572 0 1.078-0.298 1.367-0.749l-0.231 1.617z"></path><path d="M12.267 16L14.746 0 13.077 0.016 10.822 14.313H5.204L2.949 0.016 1.28 0l2.479 16H12.267z"></path></g><g id="SvgjsG3241"><path d="M12.049 4.244l-1.49 11.735H5.527L4.041 4.244h6.146L11.403 0 12.091 0.193l-1.164 4.048 1.122 0.003z" fill-rule="evenodd"></path></g><g id="SvgjsG3245"><use xlink:href="#SvgjsG3239" transform="translate(0, 0) scale(1.6)" fill="rgba(169, 203, 237, 1)"></use><use xlink:href="#SvgjsG3239" transform="translate(0, 62.400000000000006) scale(1.6)" fill="rgba(169, 203, 237, 1)"></use><use xlink:href="#SvgjsG3240" transform="translate(0, 124.80000000000001) scale(1.6)" fill="rgba(169, 203, 237, 1)"></use><use xlink:href="#SvgjsG3240" transform="translate(0, 187.20000000000002) scale(1.6)" fill="rgba(169, 203, 237, 1)"></use><use xlink:href="#SvgjsG3239" transform="translate(0, 249.60000000000002) scale(1.6)" fill="rgba(169, 203, 237, 1)"></use><use xlink:href="#SvgjsG3241" transform="translate(0, 312) scale(1.6)" fill="rgba(169, 203, 237, 1)"></use><use xlink:href="#SvgjsG3240" transform="translate(0, 374.40000000000003) scale(1.6)" fill="rgba(169, 203, 237, 1)"></use><use xlink:href="#SvgjsG3239" transform="translate(0, 436.80000000000007) scale(1.6)" fill="rgba(169, 203, 237, 1)"></use><use xlink:href="#SvgjsG3239" transform="translate(0, 499.20000000000005) scale(1.6)" fill="rgba(169, 203, 237, 1)"></use><use xlink:href="#SvgjsG3240" transform="translate(0, 561.6) scale(1.6)" fill="rgba(169, 203, 237, 1)"></use><use xlink:href="#SvgjsG3242" transform="translate(62.400000000000006, 0) scale(1.6)" fill="rgba(169, 203, 237, 1)"></use><use xlink:href="#SvgjsG3241" transform="translate(62.400000000000006, 62.400000000000006) scale(1.6)" fill="rgba(169, 203, 237, 1)"></use><use xlink:href="#SvgjsG3242" transform="translate(62.400000000000006, 124.80000000000001) scale(1.6)" fill="rgba(169, 203, 237, 1)"></use><use xlink:href="#SvgjsG3239" transform="translate(62.400000000000006, 187.20000000000002) scale(1.6)" fill="rgba(169, 203, 237, 1)"></use><use xlink:href="#SvgjsG3241" transform="translate(62.400000000000006, 249.60000000000002) scale(1.6)" fill="rgba(169, 203, 237, 1)"></use><use xlink:href="#SvgjsG3242" transform="translate(62.400000000000006, 312) scale(1.6)" fill="rgba(169, 203, 237, 1)"></use><use xlink:href="#SvgjsG3242" transform="translate(62.400000000000006, 374.40000000000003) scale(1.6)" fill="rgba(169, 203, 237, 1)"></use><use xlink:href="#SvgjsG3241" transform="translate(62.400000000000006, 436.80000000000007) scale(1.6)" fill="rgba(169, 203, 237, 1)"></use><use xlink:href="#SvgjsG3239" transform="translate(62.400000000000006, 499.20000000000005) scale(1.6)" fill="rgba(169, 203, 237, 1)"></use><use xlink:href="#SvgjsG3242" transform="translate(62.400000000000006, 561.6) scale(1.6)" fill="rgba(169, 203, 237, 1)"></use><use xlink:href="#SvgjsG3241" transform="translate(124.80000000000001, 0) scale(1.6)" fill="rgba(169, 203, 237, 1)"></use><use xlink:href="#SvgjsG3239" transform="translate(124.80000000000001, 62.400000000000006) scale(1.6)" fill="rgba(169, 203, 237, 1)"></use><use xlink:href="#SvgjsG3243" transform="translate(124.80000000000001, 124.80000000000001) scale(1.6)" fill="rgba(169, 203, 237, 1)"></use><use xlink:href="#SvgjsG3244" transform="translate(124.80000000000001, 187.20000000000002) scale(1.6)" fill="rgba(169, 203, 237, 1)"></use><use xlink:href="#SvgjsG3241" transform="translate(124.80000000000001, 249.60000000000002) scale(1.6)" fill="rgba(169, 203, 237, 1)"></use><use xlink:href="#SvgjsG3241" transform="translate(124.80000000000001, 312) scale(1.6)" fill="rgba(169, 203, 237, 1)"></use><use xlink:href="#SvgjsG3241" transform="translate(124.80000000000001, 374.40000000000003) scale(1.6)" fill="rgba(169, 203, 237, 1)"></use><use xlink:href="#SvgjsG3239" transform="translate(124.80000000000001, 436.80000000000007) scale(1.6)" fill="rgba(169, 203, 237, 1)"></use><use xlink:href="#SvgjsG3242" transform="translate(124.80000000000001, 499.20000000000005) scale(1.6)" fill="rgba(169, 203, 237, 1)"></use><use xlink:href="#SvgjsG3240" transform="translate(124.80000000000001, 561.6) scale(1.6)" fill="rgba(169, 203, 237, 1)"></use><use xlink:href="#SvgjsG3239" transform="translate(187.20000000000002, 0) scale(1.6)" fill="rgba(169, 203, 237, 1)"></use><use xlink:href="#SvgjsG3242" transform="translate(187.20000000000002, 62.400000000000006) scale(1.6)" fill="rgba(169, 203, 237, 1)"></use><use xlink:href="#SvgjsG3241" transform="translate(187.20000000000002, 124.80000000000001) scale(1.6)" fill="rgba(169, 203, 237, 1)"></use><use xlink:href="#SvgjsG3243" transform="translate(187.20000000000002, 187.20000000000002) scale(1.6)" fill="rgba(169, 203, 237, 1)"></use><use xlink:href="#SvgjsG3241" transform="translate(187.20000000000002, 249.60000000000002) scale(1.6)" fill="rgba(169, 203, 237, 1)"></use><use xlink:href="#SvgjsG3244" transform="translate(187.20000000000002, 312) scale(1.6)" fill="rgba(169, 203, 237, 1)"></use><use xlink:href="#SvgjsG3243" transform="translate(187.20000000000002, 374.40000000000003) scale(1.6)" fill="rgba(169, 203, 237, 1)"></use><use xlink:href="#SvgjsG3240" transform="translate(187.20000000000002, 436.80000000000007) scale(1.6)" fill="rgba(169, 203, 237, 1)"></use><use xlink:href="#SvgjsG3240" transform="translate(187.20000000000002, 499.20000000000005) scale(1.6)" fill="rgba(169, 203, 237, 1)"></use><use xlink:href="#SvgjsG3241" transform="translate(187.20000000000002, 561.6) scale(1.6)" fill="rgba(169, 203, 237, 1)"></use><use xlink:href="#SvgjsG3244" transform="translate(249.60000000000002, 0) scale(1.6)" fill="rgba(169, 203, 237, 1)"></use><use xlink:href="#SvgjsG3242" transform="translate(249.60000000000002, 62.400000000000006) scale(1.6)" fill="rgba(169, 203, 237, 1)"></use><use xlink:href="#SvgjsG3242" transform="translate(249.60000000000002, 124.80000000000001) scale(1.6)" fill="rgba(169, 203, 237, 1)"></use><use xlink:href="#SvgjsG3240" transform="translate(249.60000000000002, 187.20000000000002) scale(1.6)" fill="rgba(169, 203, 237, 1)"></use><use xlink:href="#SvgjsG3239" transform="translate(249.60000000000002, 249.60000000000002) scale(1.6)" fill="rgba(169, 203, 237, 1)"></use><use xlink:href="#SvgjsG3241" transform="translate(249.60000000000002, 312) scale(1.6)" fill="rgba(169, 203, 237, 1)"></use><use xlink:href="#SvgjsG3240" transform="translate(249.60000000000002, 374.40000000000003) scale(1.6)" fill="rgba(169, 203, 237, 1)"></use><use xlink:href="#SvgjsG3240" transform="translate(249.60000000000002, 436.80000000000007) scale(1.6)" fill="rgba(169, 203, 237, 1)"></use><use xlink:href="#SvgjsG3243" transform="translate(249.60000000000002, 499.20000000000005) scale(1.6)" fill="rgba(169, 203, 237, 1)"></use><use xlink:href="#SvgjsG3241" transform="translate(249.60000000000002, 561.6) scale(1.6)" fill="rgba(169, 203, 237, 1)"></use><use xlink:href="#SvgjsG3239" transform="translate(312, 0) scale(1.6)" fill="rgba(169, 203, 237, 1)"></use><use xlink:href="#SvgjsG3244" transform="translate(312, 62.400000000000006) scale(1.6)" fill="rgba(169, 203, 237, 1)"></use><use xlink:href="#SvgjsG3240" transform="translate(312, 124.80000000000001) scale(1.6)" fill="rgba(169, 203, 237, 1)"></use><use xlink:href="#SvgjsG3244" transform="translate(312, 187.20000000000002) scale(1.6)" fill="rgba(169, 203, 237, 1)"></use><use xlink:href="#SvgjsG3239" transform="translate(312, 249.60000000000002) scale(1.6)" fill="rgba(169, 203, 237, 1)"></use><use xlink:href="#SvgjsG3242" transform="translate(312, 312) scale(1.6)" fill="rgba(169, 203, 237, 1)"></use><use xlink:href="#SvgjsG3241" transform="translate(312, 374.40000000000003) scale(1.6)" fill="rgba(169, 203, 237, 1)"></use><use xlink:href="#SvgjsG3241" transform="translate(312, 436.80000000000007) scale(1.6)" fill="rgba(169, 203, 237, 1)"></use><use xlink:href="#SvgjsG3244" transform="translate(312, 499.20000000000005) scale(1.6)" fill="rgba(169, 203, 237, 1)"></use><use xlink:href="#SvgjsG3242" transform="translate(312, 561.6) scale(1.6)" fill="rgba(169, 203, 237, 1)"></use><use xlink:href="#SvgjsG3239" transform="translate(374.40000000000003, 0) scale(1.6)" fill="rgba(169, 203, 237, 1)"></use><use xlink:href="#SvgjsG3239" transform="translate(374.40000000000003, 62.400000000000006) scale(1.6)" fill="rgba(169, 203, 237, 1)"></use><use xlink:href="#SvgjsG3242" transform="translate(374.40000000000003, 124.80000000000001) scale(1.6)" fill="rgba(169, 203, 237, 1)"></use><use xlink:href="#SvgjsG3239" transform="translate(374.40000000000003, 187.20000000000002) scale(1.6)" fill="rgba(169, 203, 237, 1)"></use><use xlink:href="#SvgjsG3240" transform="translate(374.40000000000003, 249.60000000000002) scale(1.6)" fill="rgba(169, 203, 237, 1)"></use><use xlink:href="#SvgjsG3240" transform="translate(374.40000000000003, 312) scale(1.6)" fill="rgba(169, 203, 237, 1)"></use><use xlink:href="#SvgjsG3244" transform="translate(374.40000000000003, 374.40000000000003) scale(1.6)" fill="rgba(169, 203, 237, 1)"></use><use xlink:href="#SvgjsG3243" transform="translate(374.40000000000003, 436.80000000000007) scale(1.6)" fill="rgba(169, 203, 237, 1)"></use><use xlink:href="#SvgjsG3242" transform="translate(374.40000000000003, 499.20000000000005) scale(1.6)" fill="rgba(169, 203, 237, 1)"></use><use xlink:href="#SvgjsG3244" transform="translate(374.40000000000003, 561.6) scale(1.6)" fill="rgba(169, 203, 237, 1)"></use><use xlink:href="#SvgjsG3240" transform="translate(436.80000000000007, 0) scale(1.6)" fill="rgba(169, 203, 237, 1)"></use><use xlink:href="#SvgjsG3244" transform="translate(436.80000000000007, 62.400000000000006) scale(1.6)" fill="rgba(169, 203, 237, 1)"></use><use xlink:href="#SvgjsG3241" transform="translate(436.80000000000007, 124.80000000000001) scale(1.6)" fill="rgba(169, 203, 237, 1)"></use><use xlink:href="#SvgjsG3240" transform="translate(436.80000000000007, 187.20000000000002) scale(1.6)" fill="rgba(169, 203, 237, 1)"></use><use xlink:href="#SvgjsG3239" transform="translate(436.80000000000007, 249.60000000000002) scale(1.6)" fill="rgba(169, 203, 237, 1)"></use><use xlink:href="#SvgjsG3243" transform="translate(436.80000000000007, 312) scale(1.6)" fill="rgba(169, 203, 237, 1)"></use><use xlink:href="#SvgjsG3243" transform="translate(436.80000000000007, 374.40000000000003) scale(1.6)" fill="rgba(169, 203, 237, 1)"></use><use xlink:href="#SvgjsG3243" transform="translate(436.80000000000007, 436.80000000000007) scale(1.6)" fill="rgba(169, 203, 237, 1)"></use><use xlink:href="#SvgjsG3239" transform="translate(436.80000000000007, 499.20000000000005) scale(1.6)" fill="rgba(169, 203, 237, 1)"></use><use xlink:href="#SvgjsG3242" transform="translate(436.80000000000007, 561.6) scale(1.6)" fill="rgba(169, 203, 237, 1)"></use><use xlink:href="#SvgjsG3239" transform="translate(499.20000000000005, 0) scale(1.6)" fill="rgba(169, 203, 237, 1)"></use><use xlink:href="#SvgjsG3243" transform="translate(499.20000000000005, 62.400000000000006) scale(1.6)" fill="rgba(169, 203, 237, 1)"></use><use xlink:href="#SvgjsG3239" transform="translate(499.20000000000005, 124.80000000000001) scale(1.6)" fill="rgba(169, 203, 237, 1)"></use><use xlink:href="#SvgjsG3241" transform="translate(499.20000000000005, 187.20000000000002) scale(1.6)" fill="rgba(169, 203, 237, 1)"></use><use xlink:href="#SvgjsG3239" transform="translate(499.20000000000005, 249.60000000000002) scale(1.6)" fill="rgba(169, 203, 237, 1)"></use><use xlink:href="#SvgjsG3241" transform="translate(499.20000000000005, 312) scale(1.6)" fill="rgba(169, 203, 237, 1)"></use><use xlink:href="#SvgjsG3240" transform="translate(499.20000000000005, 374.40000000000003) scale(1.6)" fill="rgba(169, 203, 237, 1)"></use><use xlink:href="#SvgjsG3243" transform="translate(499.20000000000005, 436.80000000000007) scale(1.6)" fill="rgba(169, 203, 237, 1)"></use><use xlink:href="#SvgjsG3241" transform="translate(499.20000000000005, 499.20000000000005) scale(1.6)" fill="rgba(169, 203, 237, 1)"></use><use xlink:href="#SvgjsG3242" transform="translate(499.20000000000005, 561.6) scale(1.6)" fill="rgba(169, 203, 237, 1)"></use><use xlink:href="#SvgjsG3244" transform="translate(561.6, 0) scale(1.6)" fill="rgba(169, 203, 237, 1)"></use><use xlink:href="#SvgjsG3241" transform="translate(561.6, 62.400000000000006) scale(1.6)" fill="rgba(169, 203, 237, 1)"></use><use xlink:href="#SvgjsG3241" transform="translate(561.6, 124.80000000000001) scale(1.6)" fill="rgba(169, 203, 237, 1)"></use><use xlink:href="#SvgjsG3239" transform="translate(561.6, 187.20000000000002) scale(1.6)" fill="rgba(169, 203, 237, 1)"></use><use xlink:href="#SvgjsG3241" transform="translate(561.6, 249.60000000000002) scale(1.6)" fill="rgba(169, 203, 237, 1)"></use><use xlink:href="#SvgjsG3243" transform="translate(561.6, 312) scale(1.6)" fill="rgba(169, 203, 237, 1)"></use><use xlink:href="#SvgjsG3244" transform="translate(561.6, 374.40000000000003) scale(1.6)" fill="rgba(169, 203, 237, 1)"></use><use xlink:href="#SvgjsG3242" transform="translate(561.6, 436.80000000000007) scale(1.6)" fill="rgba(169, 203, 237, 1)"></use><use xlink:href="#SvgjsG3241" transform="translate(561.6, 499.20000000000005) scale(1.6)" fill="rgba(169, 203, 237, 1)"></use><use xlink:href="#SvgjsG3241" transform="translate(561.6, 561.6) scale(1.6)" fill="rgba(169, 203, 237, 1)"></use></g></defs></svg>